<svg xmlns="http://www.w3.org/2000/svg" xmlns:xlink="http://www.w3.org/1999/xlink" width="510" height="140"><g fill="#40A1A2"><path d="M101 26.1c6 8.1 9.1 17.7 10.9 27.5C111.2 32.5 97 13 77.5 5.3 67.4.8 55.9.4 45.1 2.2c-12.5 2.5-24 9.5-32.1 19.4 11.8-10.5 26.9-18.4 43-18 17.2.4 34.8 8.2 45 22.5z"/><path d="M88.7 95.8c-6.6 3.6-14.1 6-21.7 5.6-5.9-.4-10.3-5.3-16.1-5.8-2.3-.2-4.6.5-6.8.8 2.5-1.3 5-2.9 7.8-2.7 3.7.2 6.8 2.6 10.2 3.8 10.4 3.7 22.7 0 29.6-8.6-4.4-14.3-10.4-28.3-19.1-40.5-5.3-6.8-11.7-13.7-20.4-15.9-4.5-1.2-9.6-1.3-13.8.8-3.1 1.6-3.8 5.7-2.4 8.7 4.4 11.1 7.6 23 7.4 35-.2 3.4-.5 7-2.4 10-3.5 4.1-10 4.8-14.5 2 4.2-.2 9.3 1.4 12.6-2 3-3.9 3-9.2 2.3-13.9-1.4-11.7-4.3-23.3-9.6-33.8-2.3-4.4-4.9-9-9.4-11.5-3.5-2.1-7.7-.4-10.9 1.6-5.2 3.9-8.3 10.2-9.6 16.4-2 13.4-.4 27.8 6.9 39.5 7.1 12 19.4 20 32.2 24.8 13.4 4.4 28.7 4 41.1-2.9 13.4-6.9 23.4-19.6 27.6-34-5.4 8.7-11.9 17.3-21 22.6zm-32.5-32c1.3 0 2.4 1.1 2.4 2.4s-1.1 2.4-2.4 2.4-2.4-1.1-2.4-2.4 1-2.4 2.4-2.4zM79.6 110.3c3.1 5.6 4.5 12.1 3.8 18.4 0 .4-.7.5-.8.1-.9-2.1-1.2-4.3-2.1-6.3-1.6-2.4-4.8-2.3-7.3-1.8-4.8 2.6-5.4 9.9-1.7 13.7 6.3 7.7 20.3 5 23.8-4.2 3.5-9.7 2-20.3.1-30.2-4.3 4.8-10 7.9-15.8 10.3z"/></g><g fill="#E37863"><path d="M418.9 53.5h-4.2l-1.5 8.4h4.3c1.9 0 3.3-.4 4.2-1.3.9-.9 1.4-2.1 1.3-3.7-.1-2.2-1.4-3.4-4.1-3.4zM268.6 53.5h-4.2l-1.5 8.4h4.3c1.9 0 3.3-.4 4.2-1.3.9-.9 1.4-2.1 1.3-3.7-.1-2.2-1.5-3.4-4.1-3.4zM298.7 54.2c-.6-.5-1.6-.7-2.9-.7h-3.2l-1.4 7.7h3.2c1.8 0 3.1-.4 4-1.2.9-.8 1.3-2 1.3-3.6-.1-1-.4-1.7-1-2.2zM198.1 53c-1.3 0-2.5.3-3.7.9-1.1.6-2.1 1.5-2.9 2.6-.8 1.1-1.5 2.4-1.9 4-.5 1.5-.7 3.2-.6 5 0 2.3.6 4.1 1.7 5.4 1.1 1.3 2.6 1.9 4.4 1.9 3.1 0 5.4-1.3 7.1-3.9.8-1.2 1.4-2.6 1.8-4.1.4-1.5.6-3.1.6-4.7 0-2.4-.6-4.2-1.7-5.4-1.3-1.1-2.8-1.7-4.8-1.7z"/><path d="M504.9 39.1c-5.7-2.1-11.9-2.1-17.9-2H140c-3.6 0-7.1.2-10.7.4 4.1.5 8.8.6 12.3 3 1.5 1 2.2 2.9 1.9 4.6-2.5 14.5-5.1 28.9-7.4 43.3 121.7.1 243.3 0 365 0 3-15.3 5.1-30.7 8.3-45.9-1.3-1.2-2.6-2.8-4.5-3.4zM179.3 55.8c-1.3-1-2.6-1.7-3.9-2.1-1.3-.5-2.7-.7-4.2-.7s-3 .3-4.3.9c-1.3.6-2.4 1.5-3.4 2.6s-1.7 2.4-2.2 3.9c-.5 1.5-.8 3.2-.8 5 0 2.3.7 4.1 2 5.4 1.3 1.3 3.1 1.9 5.3 1.9 1.4 0 2.9-.3 4.4-.8 1.5-.5 3.1-1.3 4.9-2.3l-1.2 6.6c-3.7 1.3-7 2-10.1 2-2.1 0-3.9-.3-5.6-.9s-3.1-1.4-4.2-2.5c-1.2-1.1-2-2.3-2.7-3.8-.6-1.5-1-3.1-1-4.9 0-2.4.3-4.7 1-6.8.7-2.1 1.8-4 3.3-5.8 1.7-2 3.8-3.6 6.2-4.7 2.4-1.1 5.1-1.7 7.9-1.7 3.1 0 6.2.7 9.5 2.2l-.9 6.5zm32.2 10.5c-.7 2.1-1.7 4.1-3.1 5.8-3.4 4.2-8.1 6.3-14.2 6.3-2 0-3.9-.3-5.5-.9-1.6-.6-3-1.4-4.2-2.5-1.2-1.1-2.1-2.3-2.7-3.8-.6-1.5-1-3.1-1-4.8 0-2.5.3-4.8 1-6.9.7-2.1 1.7-4.1 3.1-5.8 3.3-4.2 8.1-6.3 14.2-6.3 2 0 3.9.3 5.5.9 1.7.6 3.1 1.4 4.2 2.5s2.1 2.3 2.7 3.8c.6 1.5 1 3.1 1 4.8.1 2.5-.3 4.8-1 6.9zm35.1 11.6h-7.3l3.9-22.1-10.1 16.3H229l-4.4-16.3-3.9 22.1h-7.3l5.3-29.9h9.5l4.1 15.9 9.8-15.9h9.8l-5.3 29.9zm30.7-13.7c-1.3 1.2-2.7 2.1-4.4 2.5-1.7.5-3.7.7-6 .7h-5.1L260 77.9h-7.7l5.3-29.9h12.8c3.2 0 5.7.7 7.5 2.2 1.7 1.4 2.6 3.4 2.7 5.9 0 1.6-.2 3.1-.8 4.5-.6 1.4-1.5 2.6-2.5 3.6zm25.5 1.4c.7.9 1.3 2.2 1.8 3.8l2.7 8.5h-7.7l-2.4-7.4c-.2-.7-.5-1.3-.7-1.8-.3-.5-.6-.9-.9-1.2-.3-.3-.8-.5-1.2-.7-.5-.1-1-.2-1.7-.2h-2.5l-2 11.3h-7.7l5.3-29.9h11.4c3.3 0 5.8.6 7.5 1.8 1.7 1.2 2.6 3 2.6 5.4 0 1.2-.1 2.3-.5 3.3-.3 1-.8 1.9-1.4 2.6-.6.8-1.4 1.4-2.3 1.8-.9.5-1.9.8-3.1.9 1.2.3 2.1.9 2.8 1.8zm30.7-6.2l-1 5.8h-12.3L319 72h13.5l-1 5.8h-21.2l5.3-29.9h20.8l-1 5.8h-13.1l-1 5.6h12.2zm13.7-1.3c.6.4 1.5.7 2.8 1l3.2.8c2.6.7 4.6 1.6 5.8 2.8 1.3 1.2 1.9 2.9 2 4.9 0 1.6-.3 3-.8 4.3-.6 1.3-1.5 2.4-2.6 3.4-1.2.9-2.6 1.7-4.2 2.2s-3.6.8-5.7.8c-1.9 0-3.8-.2-5.7-.5-1.9-.4-3.8-.9-5.7-1.6l1.1-6.5c3.6 2.1 7 3.1 10.2 3.1 1.9 0 3.3-.4 4.3-1.1 1-.8 1.5-1.7 1.5-2.7 0-.9-.4-1.5-1-1.9-.7-.4-1.7-.7-3-1l-3.2-.8c-4.6-1.1-7-3.7-7-7.5 0-1.5.2-2.9.8-4.2.6-1.3 1.4-2.3 2.6-3.2 1.1-.9 2.5-1.6 4.1-2.1 1.6-.5 3.5-.8 5.5-.8 3.3 0 6.6.5 10.2 1.5l-1.1 6.3c-3.1-1.5-6-2.2-8.8-2.2-2 0-3.5.3-4.5.9-1 .6-1.5 1.4-1.5 2.5-.2.7.1 1.3.7 1.6zm40.1-2.9c-3.1-1.5-6-2.2-8.8-2.2-2 0-3.5.3-4.5.9-1 .6-1.5 1.4-1.5 2.5 0 .8.3 1.4.9 1.7.6.4 1.5.7 2.8 1l3.2.8c2.6.7 4.6 1.6 5.8 2.8 1.3 1.2 1.9 2.9 2 4.9 0 1.6-.3 3-.8 4.3-.6 1.3-1.5 2.4-2.6 3.4-1.2.9-2.6 1.7-4.2 2.2s-3.6.8-5.7.8c-1.9 0-3.8-.2-5.7-.5-1.9-.4-3.8-.9-5.7-1.6l1.1-6.5c3.6 2.1 7 3.1 10.2 3.1 1.9 0 3.3-.4 4.3-1.1 1-.8 1.5-1.7 1.5-2.7 0-.9-.4-1.5-1-1.9-.7-.4-1.7-.7-3-1l-3.2-.8c-4.6-1.1-7-3.7-7-7.5 0-1.5.2-2.9.8-4.2.6-1.3 1.4-2.3 2.6-3.2 1.1-.9 2.5-1.6 4.1-2.1 1.6-.5 3.5-.8 5.5-.8 3.3 0 6.6.5 10.2 1.5l-1.3 6.2zm40.3 9c-1.3 1.2-2.7 2.1-4.4 2.5-1.7.5-3.7.7-6 .7h-5.1l-1.8 10.4h-7.7l5.3-29.9h12.8c3.2 0 5.7.7 7.5 2.2 1.7 1.4 2.6 3.4 2.7 5.9 0 1.6-.2 3.1-.8 4.5-.6 1.5-1.4 2.7-2.5 3.7zm30 13.7H449l-7.2-20.7-3.7 20.7h-7.3l5.3-29.9h8.6l7.2 20.7 3.7-20.7h7.3l-5.3 29.9zm16.2-7c1.3 1.3 3.1 2 5.4 2 1.5 0 3-.2 4.5-.6l1-5.8H480l.9-5.1h12l-2.5 14.4c-2 1-4 1.7-6.1 2.1-2.1.4-4.3.7-6.7.7-2.2 0-4.1-.3-5.8-.9-1.7-.6-3.1-1.4-4.3-2.4-1.2-1.1-2.1-2.3-2.7-3.8-.6-1.5-1-3.1-1-5-.1-4.9 1.4-9.1 4.3-12.6 3.6-4.2 8.6-6.4 15-6.4 1.8 0 3.6.2 5.4.6 1.8.4 3.6.9 5.4 1.7l-1.1 6.2c-1.6-1-3.2-1.7-4.8-2.1-1.6-.5-3.1-.7-4.7-.7-1.7 0-3.3.3-4.8.9-1.4.6-2.6 1.5-3.6 2.6s-1.8 2.4-2.3 3.9c-.5 1.5-.8 3.1-.8 4.9.1 2.2.7 4.1 2 5.4z"/></g><g fill="#7F7F7F"><path d="M141.5 99.1l.4 10.6 4.5-10.6h3.5l.5 10.6 4.3-10.6h3.7l-6.1 14.6H148l-.5-11.1-4.6 11.1h-4.3l-.6-14.6h3.5zM163.6 99.1l-2.8 14.6h-3.7l2.8-14.6h3.7zM177.7 99.1l-.5 2.8h-4.7l-2.2 11.7h-3.7l2.2-11.7H164l.5-2.8h13.2zM182.4 99.1l-1.1 5.6h5.4l1.1-5.6h3.7l-2.8 14.6H185l1.2-6.2h-5.4l-1.2 6.2h-3.7l2.8-14.6h3.7zM211.6 99.1l-.6 2.9h-4.7l-2.2 11.7h-3.7l2.2-11.7h-4.7l.5-2.8h13.2zM216.3 99.1l-1.1 5.6h5.4l1.1-5.6h3.7l-2.8 14.6h-3.7l1.2-6.2h-5.4l-1.2 6.2h-3.7l2.8-14.6h3.7zM238 99.1l-.5 2.8h-6.2l-.5 2.7h5.9l-.5 2.8h-5.9l-.6 3.3h6.4l-.5 2.8h-10.1l2.8-14.6h9.7zM256.4 99.1l-.5 2.8h-6.2l-.5 2.7h5.9l-.5 2.8h-5.9l-1.2 6.2h-3.7l2.8-14.6h9.8zM265.4 98.9c1 0 1.8.1 2.6.4.8.3 1.4.7 2 1.2s1 1.1 1.3 1.9c.3.7.4 1.5.4 2.4 0 1.2-.2 2.3-.5 3.4s-.9 2-1.5 2.8c-1.6 2.1-3.9 3.1-6.8 3.1-1 0-1.8-.1-2.6-.4-.8-.3-1.4-.7-2-1.2-.5-.5-1-1.1-1.3-1.9-.3-.7-.4-1.5-.4-2.4 0-1.2.2-2.3.5-3.4.4-1 .9-2 1.5-2.8 1.6-2.1 3.8-3.1 6.8-3.1zm2.4 6.2c0-1.2-.3-2-.8-2.6s-1.2-.9-2.2-.9c-.6 0-1.2.2-1.8.5-.5.3-1 .7-1.4 1.3-.4.5-.7 1.2-1 1.9-.2.7-.4 1.6-.4 2.5 0 1.1.3 2 .8 2.6.5.6 1.2.9 2.1.9 1.5 0 2.6-.6 3.4-1.9.4-.6.7-1.3.9-2s.4-1.5.4-2.3zM275.6 113.7h-3.7l2.8-14.6h5.4c1.6 0 2.8.3 3.6.9.8.6 1.2 1.5 1.2 2.6 0 .6-.1 1.1-.2 1.6-.2.5-.4.9-.7 1.3-.3.4-.7.7-1.1.9-.4.2-.9.4-1.5.4.5.1 1 .4 1.3.8.3.4.6 1.1.8 1.9l1.2 4.1H281l-1.1-3.6-.3-.9c-.1-.2-.3-.4-.4-.6s-.4-.3-.6-.3c-.2-.1-.5-.1-.8-.1h-1.2l-1 5.6zm3.1-8.1c.8 0 1.5-.2 1.9-.6.4-.4.6-1 .6-1.7 0-.5-.1-.9-.4-1.1-.3-.2-.8-.3-1.4-.3h-1.5l-.7 3.7h1.5zM297.5 113c-1.8.6-3.4 1-4.8 1-1 0-1.9-.1-2.6-.4-.8-.3-1.4-.7-2-1.2-.5-.5-1-1.1-1.3-1.9-.3-.7-.4-1.5-.4-2.4 0-1.2.2-2.3.5-3.3.4-1 .9-2 1.6-2.8.8-1 1.8-1.8 3-2.3 1.2-.5 2.4-.8 3.8-.8 1.5 0 3 .4 4.5 1.1l-.6 3c-.6-.5-1.2-.8-1.8-1s-1.3-.3-2-.3-1.4.2-2 .5c-.6.3-1.2.7-1.6 1.3-.5.5-.8 1.2-1.1 1.9-.3.7-.4 1.6-.4 2.4 0 1.1.3 2 .9 2.6.6.6 1.5 1 2.5 1 .7 0 1.4-.1 2.1-.4.7-.3 1.5-.6 2.4-1.1l-.7 3.1zM312.3 99.1l-.5 2.8h-6.2l-.5 2.7h5.9l-.5 2.8h-5.9l-.6 3.3h6.4l-.5 2.8h-10.1l2.8-14.6h9.7zM327.2 98.9c1 0 1.8.1 2.6.4.8.3 1.4.7 2 1.2s1 1.1 1.3 1.9c.3.7.4 1.5.4 2.4 0 1.2-.2 2.3-.5 3.4s-.9 2-1.5 2.8c-1.6 2.1-3.9 3.1-6.8 3.1-1 0-1.8-.1-2.6-.4-.8-.3-1.4-.7-2-1.2-.5-.5-1-1.1-1.3-1.9-.3-.7-.4-1.5-.4-2.4 0-1.2.2-2.3.5-3.4.4-1 .9-2 1.5-2.8 1.6-2.1 3.8-3.1 6.8-3.1zm2.4 6.2c0-1.2-.3-2-.8-2.6s-1.2-.9-2.2-.9c-.6 0-1.2.2-1.8.5-.5.3-1 .7-1.4 1.3-.4.5-.7 1.2-1 1.9-.2.7-.4 1.6-.4 2.5 0 1.1.3 2 .8 2.6.5.6 1.2.9 2.1.9 1.5 0 2.6-.6 3.4-1.9.4-.6.7-1.3.9-2s.4-1.5.4-2.3zM346.4 99.1l-.5 2.8h-6.2l-.5 2.7h5.9l-.5 2.8h-5.9l-1.2 6.2h-3.7l2.8-14.6h9.8zM355.6 111l-1.4 2.7h-3.8l8.1-14.6h4.2l2.5 14.6h-3.5l-.4-2.7h-5.7zm5.2-2.7l-.9-5.6-3 5.6h3.9zM373.2 99.1l3.3 10.1 1.9-10.1h3.5l-2.8 14.6H375l-3.3-10.1-1.9 10.1h-3.5l2.8-14.6h4.1zM400.5 99.1l-.5 2.8h-6.2l-.5 2.7h5.9l-.5 2.8h-5.9l-.6 3.3h6.4l-.5 2.8H388l2.8-14.6h9.7zM406.7 99.1l-2.2 11.7h6.4l-.5 2.8h-10.1l2.8-14.6h3.6zM424.5 99.1l-.5 2.9h-6.2l-.5 2.7h5.9l-.5 2.8h-5.9l-.6 3.3h6.4l-.5 2.8H412l2.8-14.6h9.7zM433.2 99.1c1.5 0 2.7.4 3.5 1.1.8.7 1.2 1.7 1.2 2.9 0 .8-.1 1.5-.4 2.2-.3.7-.7 1.3-1.2 1.8-.6.6-1.3 1-2.1 1.2-.8.2-1.7.3-2.9.3h-2.4l-1 5.1h-3.7l2.8-14.6h6.2zm-3.7 6.8h2c.9 0 1.6-.2 2-.6s.7-1 .7-1.8c0-1.1-.6-1.6-1.9-1.6h-2l-.8 4zM444.2 99.1l-1.1 5.6h5.4l1.1-5.6h3.7l-2.8 14.6h-3.7l1.2-6.2h-5.4l-1.2 6.2h-3.7l2.8-14.6h3.7zM456.7 111l-1.4 2.7h-3.8l8.1-14.6h4.2l2.5 14.6h-3.5l-.4-2.7h-5.7zm5.3-2.7l-.9-5.6-3 5.6h3.9zM474.4 99.1l3.3 10.1 1.9-10.1h3.5l-2.8 14.6h-4.1l-3.3-10.1-1.9 10.1h-3.5l2.8-14.6h4.1zM497.2 99.1l-.5 2.8H492l-2.2 11.7H486l2.2-11.7h-4.7l.5-2.8h13.2z"/></g><image overflow="visible" width="510" height="140" xlink:href="logo.png" transform="translate(0 140)"/></svg>