<svg xmlns="http://www.w3.org/2000/svg" viewBox="0 0 223.14 50.05"><defs><style>.cls-1{fill:#4f88f7;}.cls-2{fill:#f58127;}.cls-3{fill:#b7cde5;}.cls-4{fill:#f0f5fc;}.cls-5{fill:#424242;}</style></defs><title>lottieflow-logo-fl</title><g id="Layer_2" data-name="Layer 2"><g id="Layer_1-2" data-name="Layer 1"><path class="cls-1" d="M33.47,41.68C24.28,50.87,0,50,0,50S-.83,25.77,8.37,16.58s18-6.78,25,.15S42.66,32.48,33.47,41.68Z"/><path class="cls-2" d="M34.38,30.84c-5.56,5.56-20.22,5.05-20.22,5.05s-.51-14.66,5.05-20.22,10.89-4.1,15.08.09S39.94,25.28,34.38,30.84Z"/><ellipse class="cls-3" cx="36.2" cy="13.51" rx="19.04" ry="8.56" transform="translate(1.05 29.56) rotate(-45)"/><ellipse class="cls-3" cx="38.5" cy="26.72" rx="11.29" ry="5.08" transform="translate(7.7 62.04) rotate(-83.67)"/><ellipse class="cls-3" cx="23.06" cy="11.28" rx="11.29" ry="5.08" transform="translate(-1.1 2.61) rotate(-6.33)"/><circle class="cls-4" cx="41.51" cy="8.53" r="3.61"/><path class="cls-5" d="M128.76,18.22c-3.38,2.37-4.51,5.78-4,9.75a9.13,9.13,0,0,0,6,8,10,10,0,0,0,10.5-1.73,7.76,7.76,0,0,0,2.08-2.7l-3.08-1.21A6.93,6.93,0,0,1,132.18,33a5.47,5.47,0,0,1-3.79-4.83H144a11.79,11.79,0,0,0-1.14-6.83C140,15.88,132.9,15.31,128.76,18.22Zm-.34,6.8c.22-3.08,2.73-5.16,6.15-5.14A5.61,5.61,0,0,1,140.4,25Z"/><path class="cls-5" d="M78,16.64a9.8,9.8,0,0,0-10,10.13,10.08,10.08,0,1,0,20.16-.07A9.82,9.82,0,0,0,78,16.64Zm0,16.84a6.5,6.5,0,0,1-6.44-6.77,6.48,6.48,0,1,1,13,.06A6.53,6.53,0,0,1,78,33.48Z"/><polygon class="cls-5" points="95.9 9.77 92.31 9.77 92.31 17 92.31 20.08 92.31 36.2 95.9 36.2 95.9 20.08 100.25 20.08 100.25 17 95.9 17 95.9 9.77"/><path class="cls-5" d="M219.6,17c-.15,0-.37.26-.44.44-.41,1.08-.79,2.17-1.18,3.26l-3.55,9.91c-.13-.32-.22-.53-.3-.74q-2.22-6.13-4.42-12.28c-.16-.44-.35-.66-.86-.62a21.3,21.3,0,0,1-2.26,0c-.49,0-.7.16-.86.62-1.31,3.73-2.66,7.46-4,11.19-.2.58-.42,1.16-.67,1.83-.13-.35-.23-.59-.32-.83-1.46-4.07-2.91-8.15-4.39-12.22-.08-.22-.3-.54-.47-.55-1.15-.05-2.31,0-3.55,0,0,.19.06.27.09.35q3.53,9.25,7,18.5a.53.53,0,0,0,.61.4,16.66,16.66,0,0,1,1.87,0,.73.73,0,0,0,.87-.59c1.51-4.31,3.06-8.6,4.6-12.9.07-.21.16-.42.28-.75.13.31.21.49.28.68L212.19,34c.27.72.35,1.73.87,2.08s1.53.09,2.32.15a.73.73,0,0,0,.87-.59q3.34-9,6.72-18.07a5.63,5.63,0,0,0,.17-.59C221.91,17,220.75,17,219.6,17Z"/><path class="cls-5" d="M180,16.51a9.81,9.81,0,0,0-10,10.14,10.08,10.08,0,1,0,20.16-.07A9.83,9.83,0,0,0,180,16.51Zm0,16.85a6.5,6.5,0,0,1-6.44-6.77,6.48,6.48,0,1,1,13,.05A6.55,6.55,0,0,1,180,33.36Z"/><path class="cls-5" d="M116.16,17V36.2h3.51V17h-2.92Z"/><path class="cls-5" d="M117.91,7.52a2.38,2.38,0,1,0,0,4.76,2.45,2.45,0,0,0,2.56-2.4A2.47,2.47,0,0,0,117.91,7.52Z"/><polygon class="cls-5" points="107.96 9.76 104.36 9.76 104.36 17 104.36 20.08 104.36 36.2 107.96 36.2 107.96 20.08 112.3 20.08 112.3 17 107.96 17 107.96 9.76"/><rect class="cls-5" x="60.15" y="7.89" width="3.68" height="28.3"/><path class="cls-5" d="M161.51,6.54V36.19H165V6.6c-.07,0-.08-.07-.1-.07Z"/><path class="cls-5" d="M149.91,10.51a12.7,12.7,0,0,0-.78,4.92V17h0v3.08h0V36.21h3.58c0-3.22,0-10.52,0-16.13h4.33V17h-4.3c0-2.21.07-3.8.12-4.18a3,3,0,0,1,2.76-2.74c.82-.09,1.64-.13,2.47-.15V6.56c-1,0-2,0-3,.09A5.74,5.74,0,0,0,149.91,10.51Z"/></g></g></svg>